<svg xmlns="http://www.w3.org/2000/svg" viewBox="0 0 170.1 113.4"><g fill-rule="evenodd" clip-rule="evenodd"><path fill="#c92128" d="M0 113.4h170.1V0H0v113.4z"/><path d="M27.3 15.3l3.9 12h12.6l-10.2 7.4 3.9 12-10.2-7.4-10.2 7.4 3.9-12-10.2-7.4h12.6l3.9-12zM61.5 55l-4 1.4.1 4.2-2.6-3.4-4 1.4 2.4-3.5-2.5-3.4 4 1.3 2.4-3.5.1 4.2 4.1 1.3zm11.1-13l-3.5 2.4 1.2 4-3.3-2.5-3.5 2.4 1.4-4-3.4-2.5 4.2.1 1.4-4 1.2 4 4.3.1zm-1-18.8l-2.4 3.5 2.5 3.4-4-1.3-2.4 3.5-.1-4.3-4-1.2 4-1.4-.1-4.2 2.5 3.4 4-1.4zM57.7 9.9l-.1 4.2 4 1.3-4 1.3v4.2l-2.4-3.5-4 1.3 2.5-3.4-2.5-3.4 4 1.4 2.5-3.4z" fill="#fcee21"/></g></svg>