<svg xmlns="http://www.w3.org/2000/svg" viewBox="0 0 26 26"><circle cx="13" cy="13" r="12.2" fill="none" stroke="#fff" stroke-miterlimit="10"/><path d="M15.1 8.2h.5c.2 0 .3.1.5.1.3.1.6.3.8.5h.1c.5-.1.9-.3 1.4-.5h.1v.1c-.1.3-.3.5-.5.8-.1.2-.3.3-.5.4.1 0 .2 0 .3-.1l.9-.3h.1v.1c-.2.3-.4.6-.7.8-.1.1-.2.2-.4.3l-.1.1v.4c0 .3 0 .6-.1.9l-.3 1.2c-.2.6-.5 1.2-.9 1.8-.2.2-.4.5-.5.7-.1.2-.3.3-.5.5l-1.2.9c-.4.2-.8.4-1.2.5-.3.1-.7.2-1 .2-.3 0-.6.1-.9.1h-1c-.4 0-.7-.1-1.1-.2-.4-.1-.9-.3-1.3-.5-.1-.1-.3-.1-.4-.2 0 0-.1 0-.1-.1h.7c.4 0 .7-.1 1-.2.6-.2 1.2-.4 1.7-.8-.2 0-.3 0-.5-.1-.4-.1-.7-.3-.9-.5-.2-.2-.4-.4-.6-.7-.1-.1-.1-.2-.1-.3 0-.1 0-.1.1-.1h.4c.1 0 .3 0 .4-.1-.5-.1-.9-.4-1.2-.7-.3-.4-.5-.8-.6-1.3v-.3c0-.1 0-.1.1-.1l.9.3h.1l-.3-.3c-.3-.2-.4-.5-.6-.8-.1-.2-.1-.4-.1-.6v-.5c0-.3.1-.6.3-.9 0 0 .1-.1.1 0l.5.5c.2.3.5.5.8.7l.9.6c.5.2 1 .4 1.6.5.2 0 .4.1.7.1h.3v-.3-.5c0-.2.1-.5.2-.7.1-.2.2-.4.4-.6.2-.2.5-.4.7-.6.2-.1.4-.2.6-.2h.4z" fill="#fff"/></svg>