<svg id="Layer_1" xmlns="http://www.w3.org/2000/svg" viewBox="0 0 19.4 16.7"><style>.st0{fill:#fff}</style><path class="st0" d="M13.5 5.5c-1.8.1-3.4.6-4.6 1.9C7.6 8.6 7 10.1 7.1 12c-.7-.1-1.3-.2-2-.2-.2 0-.5 0-.7.1-.6.4-1.2.8-1.9 1.2.1-.6.2-1.1.4-1.6.1-.4.1-.6-.3-.8C.5 9.2-.5 6.9.2 4.5.9 2.4 2.4 1 4.5.4c2.9-.9 6.1 0 7.8 2.3.7.8 1.1 1.7 1.2 2.8zm-8.3-.7c0-.4-.4-.8-.8-.8-.5 0-.8.3-.8.8s.3.8.8.8c.4 0 .8-.4.8-.8zm4.3-.9c-.4 0-.8.4-.8.8s.4.8.8.8c.5 0 .8-.4.8-.8s-.3-.8-.8-.8z"/><path class="st0" d="M17.5 16.7c-.6-.3-1.1-.6-1.6-.7-.6-.1-1.1.3-1.7.3-1.8.2-3.4-.3-4.7-1.5-2.5-2.3-2.1-5.8.7-7.7 2.6-1.7 6.3-1.1 8.1 1.2 1.6 2 1.4 4.7-.5 6.4-.6.5-.8.9-.4 1.5.1.2.1.4.1.5zM11 10.4c.4 0 .7-.3.7-.6 0-.4-.3-.7-.7-.7-.4 0-.7.3-.7.7.1.3.4.6.7.6zm4.2-1.3c-.4 0-.7.3-.7.6 0 .4.3.7.7.7.4 0 .7-.3.7-.6 0-.4-.3-.7-.7-.7z"/></svg>