<svg id="Layer_1" data-name="Layer 1" xmlns="http://www.w3.org/2000/svg" viewBox="0 0 130.06 130.06"><defs><style>.cls-3,.cls-4{fill:none;stroke:#d62334;stroke-width:2px}.cls-3{stroke-linecap:round}.cls-3,.cls-4{stroke-miterlimit:10}</style></defs><circle cx="67.33" cy="64.97" r="63.74" fill="#fff"/><path stroke-linejoin="round" stroke-linecap="round" fill="none" stroke="#d62334" stroke-width="2" d="M88.06 65.03L51.44 85.71V44.36l36.62 20.67z"/><path class="cls-3" d="M29 61.88q-.13 1.56-.14 3.15a36.18 36.18 0 0 0 72.36 0"/><path class="cls-4" d="M65 28.85h-1.86"/><path d="M59.35 29.3a36.21 36.21 0 0 0-29.84 28.84" stroke-dasharray="3.84 3.84" stroke-miterlimit="10" fill="none" stroke="#d62334" stroke-width="2"/><path class="cls-4" d="M29.2 60q-.13 1-.2 1.88M92.21 41.15q-.61-.7-1.26-1.36"/><path d="M88.11 37.17a36 36 0 0 0-19.28-8.12" stroke-dasharray="3.86 3.86" stroke-miterlimit="10" fill="none" stroke="#d62334" stroke-width="2"/><path class="cls-4" d="M66.89 28.9h-1.86"/><path class="cls-3" d="M101.21 65"/><path d="M100.85 59.88a36 36 0 0 0-7-16.72" stroke-dasharray=".1 5.11" stroke-miterlimit="10" stroke-linecap="round" fill="none" stroke="#d62334" stroke-width="2"/><path class="cls-3" d="M92.24 41.18"/></svg>