<svg id="Layer_1" data-name="Layer 1" xmlns="http://www.w3.org/2000/svg" viewBox="0 0 130.06 130.06"><defs><style>.cls-2{fill:none;stroke:#d62334;stroke-linecap:round;stroke-linejoin:round;stroke-width:2px}</style></defs><circle cx="64.53" cy="64.97" r="63.74" fill="#fff"/><ellipse class="cls-2" cx="56.5" cy="48.33" rx="14.94" ry="15.21"/><path class="cls-2" d="M28.61 96.95V85a13.37 13.37 0 0 1 13.21-13.45h29.36A13.37 13.37 0 0 1 84.39 85v12M71.44 62.58a13 13 0 0 0 5.29 1.12 13.49 13.49 0 0 0 0-27 13 13 0 0 0-5.16 1.06M82.86 70.81h6.88a11.85 11.85 0 0 1 11.71 11.92v10.6"/></svg>