<svg id="Layer_1" data-name="Layer 1" xmlns="http://www.w3.org/2000/svg" viewBox="0 0 130.06 130.06"><defs><style>.cls-2{fill:none;stroke:#d62334;stroke-linecap:round;stroke-linejoin:round;stroke-width:2px}</style></defs><circle cx="67.33" cy="64.9" r="63.74" fill="#fff"/><circle class="cls-2" cx="65.97" cy="64.97" r="20.12"/><path class="cls-2" d="M34.69 72.22l-7.25-7.25 7.25-7.25M45.89 64.97h-17.9M97.24 57.72l7.26 7.25-7.26 7.25M86.04 64.97h17.78M49 93H39V82M51.77 79.16L39.11 91.82M84 37h10v11M80.16 50.77L92.74 38.2M73.19 96.14l-7.4 7.39-7.04-7.04M65.97 85.04v17.91M58.75 33.8l7.39-7.4 7.05 7.05M65.97 44.89V27.11M94 82v11H84M80.16 79.16l12.66 12.66M39 48V37h10M51.77 50.77L39.2 38.2"/></svg>