<svg id="Layer_1" data-name="Layer 1" xmlns="http://www.w3.org/2000/svg" viewBox="0 0 130.06 130.06"><defs><style>.cls-2,.cls-3,.cls-4{fill:none;stroke:#d62334;stroke-linecap:round;stroke-width:2px}.cls-2{stroke-linejoin:round}.cls-3,.cls-4{stroke-miterlimit:10}.cls-4{stroke-dasharray:.1 5}</style></defs><circle cx="65.46" cy="65.03" r="63.74" fill="#fff"/><path class="cls-2" d="M71.84 86.94l-20.7 13.05 13.95-38.62 13.95 38.62-20.68-13.02M57.44 84.66h15.34"/><path class="cls-3" d="M61.08 77.05h7.94M41.53 30.07a35.6 35.6 0 0 0-.33 50.36"/><path class="cls-4" d="M47 37.81a24.6 24.6 0 0 0-.29 34.88"/><path class="cls-3" d="M53.19 44.07a15.92 15.92 0 0 0-.49 22.37M88.54 30.07a35.6 35.6 0 0 1 .33 50.36"/><path class="cls-4" d="M83 37.81a24.6 24.6 0 0 1 .29 34.88"/><path class="cls-3" d="M76.88 44.07a15.92 15.92 0 0 1 .49 22.37"/><circle class="cls-3" cx="65.11" cy="55.25" r="6.11"/></svg>